<svg xmlns="http://www.w3.org/2000/svg" width="120" height="32" viewBox="0 0 120 32">
  <g fill="none" transform="translate(0 5)">
    <path fill="#2F8DEB" d="M22.2619901,0.314880952 L6.34670462,0.314880952 C6.04232747,0.314880952 5.79529675,0.560214286 5.79529675,0.8625 L5.79529675,7.82547619 L14.6994311,7.82547619 C15.0038082,7.82547619 15.250839,8.07080952 15.250839,8.37309524 L15.250839,17.2160476 L22.2619901,17.2160476 C22.5663672,17.2160476 22.8133979,16.9707143 22.8133979,16.6684286 L22.8133979,0.8625 C22.8133979,0.560214286 22.5669186,0.314880952 22.2619901,0.314880952 Z"/>
    <path fill="#A0D6FA" d="M15.250839,8.37364286 C15.250839,8.07135714 15.0038082,7.82602381 14.6994311,7.82602381 L5.79529675,7.82602381 L0.989777132,7.82602381 C0.685399986,7.82602381 0.438369259,8.07135714 0.438369259,8.37364286 L0.438369259,21.9890952 C0.438369259,22.291381 0.685399986,22.5367143 0.989777132,22.5367143 L14.6994311,22.5367143 C15.0038082,22.5367143 15.250839,22.291381 15.250839,21.9890952 L15.250839,17.2165952 L14.6873001,17.2171429 C14.6856459,17.2171429 14.6839917,17.2165952 14.6823374,17.2165952 C9.77866722,17.2029048 5.80742772,13.2578571 5.79639956,8.38678571 L5.79529675,7.82602381 L14.6994311,7.82602381 C15.0038082,7.82602381 15.250839,8.07080952 15.250839,8.37364286 Z"/>
    <polygon fill="#FFF" points="14.682 17.216 14.687 17.217 15.251 17.216 15.251 17.216"/>
    <path fill="#FFF" d="M14.6994311,7.82602381 L5.79529675,7.82602381 L5.79639956,8.38678571 C5.80742772,13.2573095 9.77866722,17.2023571 14.6823374,17.2165952 L15.250839,17.2165952 L15.250839,8.37364286 C15.250839,8.07080952 15.0038082,7.82602381 14.6994311,7.82602381 Z"/>
    <g fill="#262B33" transform="translate(33.6 3.286)">
      <path d="M5.07940903 3.98228571L5.07940903 5.87869048C5.07940903 5.87869048 4.76124669 5.77354762 4.44308435 5.77354762 3.16988357 5.77354762 2.10952623 6.82716667 2.10952623 8.09107143L2.10952623 13.4643095.200000763 13.4643095.200000763 3.98283333 1.57907185 3.98283333 2.00310451 4.9307619C2.00310451 4.9307619 2.85172122 3.87714286 4.44308435 3.87714286 4.86766841 3.87659524 5.07940903 3.98228571 5.07940903 3.98228571zM14.7990091 10.7245714C14.162133 12.3044524 12.8894836 13.5689048 10.6617958 13.5689048 8.11594566 13.5689048 6.09999847 11.5673571 6.09999847 8.72302381 6.09999847 5.87869048 8.11539425 3.87659524 10.5553741 3.87659524 12.9948025 3.87659524 15.0107497 5.87814286 15.0107497 8.72302381 15.0107497 9.14469048 14.9048794 9.56580952 14.9048794 9.56580952L8.11594566 9.56580952C8.22181597 10.7245714 9.28272472 11.7781905 10.6617958 11.7781905 11.8285749 11.7781905 12.4648996 11.1462381 12.7836133 10.7245714L14.7990091 10.7245714zM8.11594566 7.98538095L13.207646 7.98538095C12.9953539 6.61578571 12.0408669 5.66785714 10.5559255 5.66785714 9.28272472 5.66785714 8.32768628 6.61578571 8.11594566 7.98538095zM18.3095232 10.4085952C18.4153935 11.251381 18.9463993 11.7781905 20.0067566 11.7781905 21.1735357 11.7781905 21.70399 11.251381 21.70399 10.6194286 21.70399 8.93385714 16.6122897 10.092619 16.6122897 6.72147619 16.6122897 5.14104762 17.8854905 3.87659524 19.9008863 3.87659524 22.1285741 3.87659524 23.2953532 5.03535714 23.4017749 6.82661905L21.4922494 6.82661905C21.3863791 6.19466667 20.8559247 5.66785714 19.9008863 5.66785714 18.9463993 5.66785714 18.4159449 6.19466667 18.4159449 6.72147619 18.4159449 8.40704762 23.5076452 7.24828571 23.5076452 10.6194286 23.5076452 12.305 22.2349958 13.5694524 20.0067566 13.5694524 17.6731985 13.5694524 16.505868 12.4106905 16.3999977 10.4091429L18.3095232 10.4091429 18.3095232 10.4085952zM25.2999992 9.46011905L25.2999992 3.9817381 27.2095247 3.9817381 27.2095247 9.46011905C27.2095247 10.7245714 28.2704334 11.7776429 29.4372125 11.7776429 30.7104133 11.7776429 31.7707706 10.7240238 31.7707706 9.46011905L31.7707706 3.9817381 33.6802961 3.9817381 33.6802961 13.4632143 32.301225 13.4632143 31.8766409 12.5152857C31.8766409 12.5152857 31.0280242 13.5689048 29.1184988 13.5689048 26.9972327 13.5689048 25.2999992 11.8833333 25.2999992 9.46011905zM49.142095 7.77454762L49.142095 13.4637619 47.2325695 13.4637619 47.2325695 7.77454762C47.2325695 6.51064286 46.3839528 5.66785714 45.4294657 5.66785714 44.4744273 5.66785714 43.6258106 6.51064286 43.6258106 7.77454762L43.6258106 13.4637619 41.7162851 13.4637619 41.7162851 7.77454762C41.7162851 6.51064286 40.8676684 5.66785714 39.9131814 5.66785714 38.9586944 5.66785714 38.1095262 6.51064286 38.1095262 7.77454762L38.1095262 13.4637619 36.2000008 13.4637619 36.2000008 3.98228571 37.5790719 3.98228571 38.0031045 4.93021429C38.0031045 4.93021429 38.8517212 3.87659524 40.337214 3.87659524 42.1403178 3.87659524 42.9894859 5.35188095 42.9894859 5.35188095 42.9894859 5.37269048 43.9439729 3.87659524 45.8534984 3.87659524 47.6571536 3.87659524 49.142095 5.35133333 49.142095 7.77454762zM59.7990129 10.7245714C59.1626882 12.3044524 57.8894874 13.5689048 55.6617996 13.5689048 53.1159495 13.5689048 51.1000023 11.5673571 51.1000023 8.72302381 51.1000023 5.87869048 53.1153981 3.87659524 55.5553779 3.87659524 57.9953577 3.87659524 60.0107535 5.87814286 60.0107535 8.72302381 60.0107535 9.14469048 59.9048832 9.56580952 59.9048832 9.56580952L53.1159495 9.56580952C53.2218198 10.7245714 54.2827285 11.7781905 55.6617996 11.7781905 56.8285787 11.7781905 57.4649034 11.1462381 57.7836171 10.7245714L59.7990129 10.7245714zM53.1165009 7.98538095L58.2082012 7.98538095C57.9959092 6.61578571 57.0414221 5.66785714 55.5559293 5.66785714 54.2832799 5.66785714 53.3282415 6.61578571 53.1165009 7.98538095zM62.0667768 13.6943088C61.4304521 13.6943088 60.8999977 13.1674993 60.8999977 12.5355469 60.8999977 11.9030469 61.4304521 11.376785 62.0667768 11.376785 62.7036529 11.376785 63.2335558 11.9035945 63.2335558 12.5355469 63.2341072 13.1674993 62.7036529 13.6943088 62.0667768 13.6943088zM65.2000008 1.3482381C65.2000008.716285714 65.7304551.18947619 66.3667798.18947619 67.0031045.18947619 67.5335589.716285714 67.5335589 1.3482381 67.5335589 1.9807381 67.0031045 2.507 66.3667798 2.507 65.7304551 2.507 65.2000008 1.98019048 65.2000008 1.3482381zM67.3218183 13.4637619L65.4122928 13.4637619 65.4122928 3.98228571 67.3218183 3.98228571 67.3218183 13.4637619zM73.8617966 13.5689048C71.3159464 13.5689048 69.2999992 11.5673571 69.2999992 8.72302381 69.2999992 5.87869048 71.315395 3.87659524 73.8617966 3.87659524 76.4081981 3.87659524 78.4230425 5.87814286 78.4230425 8.72302381 78.4230425 11.5679048 76.4076467 13.5689048 73.8617966 13.5689048zM73.8617966 5.66785714C72.4827255 5.66785714 71.2095247 6.9317619 71.2095247 8.72302381 71.2095247 10.5137381 72.4827255 11.7781905 73.8617966 11.7781905 75.2408677 11.7781905 76.5140684 10.5137381 76.5140684 8.72302381 76.513517 6.9317619 75.2408677 5.66785714 73.8617966 5.66785714z"/>
    </g>
  </g>
</svg>
